<?xml version="1.0" encoding="utf-8"?>
<svg viewBox="258.607 0 286.695 289.59" xmlns="http://www.w3.org/2000/svg">
  <path fill="#F06027" opacity="1.000000" stroke="none" d="M 382.201 1 C 390.825 4.494 398.159 9.256 400.518 18.284 C 403.697 30.448 402.232 41.601 388.675 51.117 C 372.258 62.639 356.192 74.687 340.34 86.979 C 326.426 97.767 328.348 117.996 343.267 129.015 C 360.601 141.816 377.746 154.907 394.45 168.513 C 404.412 176.627 402.957 194.648 394.852 203.524 C 384.147 215.248 368.224 215.545 355 205.012 C 337.644 191.189 319.643 178.177 302.016 164.691 C 293.572 158.23 285.114 151.749 277.094 144.78 C 269.377 138.075 264.455 129.452 262.396 119.316 C 262.313 118.906 261.731 118.596 261.024 118.119 C 260.667 110.645 260.667 103.291 261.022 95.35 C 263.821 89.331 266.005 83.763 268.764 78.496 C 273.576 69.307 282.118 63.861 290.182 57.951 C 316.035 39.001 341.842 19.988 367.667 1 C 372.356 1 377.046 1 382.201 1 Z"/>
  <path fill="#25282A" opacity="1.000000" stroke="none" d="M 420.193 287.94 C 414.462 285.018 409.038 282.704 405.291 277.281 C 397.262 265.66 399.534 248.185 412.575 238.86 C 429.467 226.781 446.034 214.232 462.46 201.523 C 471.378 194.623 473.241 176.888 465.507 168.557 C 459.403 161.981 451.992 156.555 444.856 151.01 C 433.452 142.149 421.651 133.798 410.291 124.883 C 401.232 117.773 398.806 102.459 404.348 91.763 C 409.779 81.279 423.334 75.99 434.107 78.545 C 442.588 80.556 448.018 86.608 454.473 91.301 C 467.86 101.035 481.019 111.085 494.207 121.09 C 504.571 128.953 515.315 136.406 525.01 145.03 C 534.35 153.337 539.476 164.493 540.651 177.045 C 541.449 185.569 540.69 194.07 537.664 202.202 C 533.789 212.62 526.79 220.46 517.876 226.983 C 500.981 239.348 484.333 252.05 467.566 264.591 C 458.47 271.393 449.375 278.199 440.192 284.882 C 438.677 285.985 436.71 286.465 434.839 287.587 C 430.038 287.94 425.348 287.94 420.193 287.94 Z"/>
</svg>