<?xml version="1.0" encoding="utf-8"?>
<svg viewBox="0 0 956 288" xmlns="http://www.w3.org/2000/svg">
  <path opacity="1.000000" stroke="none" d=" M159.000000,289.000000 C106.402618,289.000000 53.805229,289.000000 1.000000,289.000000 C1.000000,232.310867 1.000000,175.621475 1.357324,118.585938 C2.064237,118.596466 2.646032,118.905983 2.729439,119.316711 C4.787793,129.452744 9.709564,138.075027 17.427485,144.780869 C25.447472,151.749146 33.904629,158.229980 42.348915,164.690948 C59.975861,178.177856 77.976959,191.188995 95.332863,205.012650 C108.557251,215.545624 124.479858,215.248886 135.185394,203.524048 C143.289825,194.647949 144.745071,176.627579 134.782944,168.513123 C118.078651,154.906937 100.933571,141.816849 83.600349,129.015488 C68.680534,117.996521 66.759087,97.767151 80.672539,86.979187 C96.525223,74.687614 112.591309,62.639343 129.007935,51.116905 C142.564728,41.601734 144.029541,30.448353 140.851364,18.284784 C138.492432,9.256626 131.158096,4.494172 123.000000,1.000000 C400.922058,1.000000 678.844116,1.000000 956.883057,1.000000 C956.883057,96.895012 956.883057,192.790222 956.883057,289.000000 C817.644226,289.000000 678.288147,289.000000 538.466064,288.531403 C538.000000,281.426208 538.000000,274.789581 538.000000,267.698425 C539.765503,268.092957 541.024353,268.319031 542.252197,268.657379 C551.553772,271.220367 560.064392,269.984650 566.762878,262.631012 C573.529663,255.202393 572.683044,245.947525 571.417236,237.031189 C570.392578,229.813126 566.635498,224.132263 559.461975,221.110962 C552.624695,218.231262 545.733887,218.920929 538.952026,220.636490 C531.744751,222.459656 530.000610,225.185394 530.000305,232.503006 C529.999451,251.335342 530.000000,270.167664 530.000000,289.000000 C411.644012,289.000000 293.288055,289.000000 174.578445,288.646606 C175.983032,287.525146 177.950424,287.044434 179.465210,285.941956 C188.648300,279.258270 197.743362,272.453094 206.839233,265.650238 C223.606293,253.110031 240.254211,240.407578 257.149536,228.042969 C266.063354,221.519531 273.061829,213.679520 276.937439,203.261414 C279.962585,195.129410 280.722046,186.629074 279.924011,178.105072 C278.748901,165.552628 273.623077,154.396973 264.283051,146.089462 C254.587601,137.465790 243.843918,130.012253 233.480499,122.150009 C220.292252,112.144707 207.133377,102.094521 193.745880,92.360703 C187.290741,87.667274 181.861237,81.616066 173.380157,79.604790 C162.607315,77.050026 149.052475,82.338730 143.620712,92.822762 C138.078934,103.519119 140.504745,118.832840 149.564377,125.942719 C160.924194,134.857742 172.725327,143.209030 184.129166,152.069824 C191.264938,157.614334 198.675659,163.040283 204.780563,169.617065 C212.513748,177.947922 210.650726,195.682465 201.732849,202.582626 C185.306885,215.292053 168.739609,227.840210 151.847839,239.919434 C138.807571,249.244461 136.535126,266.719421 144.564407,278.340759 C148.311447,283.764099 153.734741,286.077820 159.000000,289.000000 M307.000000,87.500000 C307.000000,63.084362 307.000000,38.668724 307.000000,14.299993 C301.356781,14.299993 296.290924,14.299993 291.286194,14.299993 C291.286194,55.648346 291.286194,96.696068 291.286194,137.700119 C296.642975,137.700119 301.708832,137.700119 307.000000,137.700119 C307.000000,121.100876 307.000000,104.800438 307.000000,87.500000 M291.002350,266.282806 C291.643524,267.183350 292.247040,268.829376 292.931976,268.863953 C297.518860,269.095734 302.123047,268.984406 306.635864,268.984406 C306.635864,227.305908 306.635864,186.253036 306.635864,145.237701 C301.328705,145.237701 296.388977,145.237701 291.000244,145.237701 C291.000244,185.421600 291.000244,225.369522 291.002350,266.282806 M589.986816,147.478195 C588.059021,145.101074 586.131165,142.723953 584.201294,140.344284 C596.035156,132.065262 598.856934,125.323326 593.816345,117.483276 C589.481689,110.741241 580.750610,108.453468 573.648315,113.063347 C570.682434,114.988403 568.305420,118.534607 566.809570,121.860413 C563.807007,128.535843 569.377747,133.174057 572.065857,138.380875 C558.817932,146.170456 556.775940,158.592392 563.331055,168.580414 C568.172058,175.956665 582.676086,181.094177 597.887451,169.095215 C601.288696,174.761948 606.366882,176.153503 612.862488,174.559982 C610.258667,171.545197 607.879028,168.678497 605.374023,165.925858 C603.479309,163.843781 602.809509,161.997437 604.254639,159.102509 C606.064209,155.477386 607.021729,151.426987 608.910034,145.917587 C605.182617,147.161652 602.329590,147.303101 600.904358,148.802109 C599.256042,150.535797 598.864624,153.464539 597.733459,156.373444 C594.972717,153.179993 592.730347,150.586227 589.986816,147.478195 M431.830078,186.996613 C428.715820,186.309769 425.601562,185.622910 422.267761,184.887634 C421.680054,189.345139 421.031708,193.186661 427.326965,193.128357 C431.566010,193.089096 435.809875,193.931381 440.053528,193.950989 C450.006409,193.996964 456.930969,187.089462 456.983429,177.186218 C457.051422,164.356262 457.139801,151.522751 456.873199,138.697968 C456.824280,136.345200 455.713135,133.447174 454.084503,131.793213 C447.185547,124.786995 438.461304,125.914825 429.996704,127.600311 C424.371918,128.720306 420.470673,132.370377 417.707458,137.612366 C414.696991,143.323303 414.992065,149.289536 415.008545,155.316574 C415.051636,171.060623 427.411926,179.590652 441.821167,176.076080 C444.081024,175.524918 446.426239,175.323730 448.791504,174.951340 C449.166016,182.542542 448.217072,184.130203 441.432556,186.040070 C438.664429,186.819321 435.645172,186.706635 431.830078,186.996613 M927.000000,82.320816 C927.000000,70.164551 927.032532,58.008156 926.983215,45.852097 C926.964783,41.321461 925.289246,38.048435 920.817810,35.852081 C914.749268,32.871246 908.503174,32.698727 902.480957,34.411098 C897.976379,35.691936 894.042542,38.341251 891.733887,43.445118 C887.990112,51.721909 887.497620,60.022350 889.302734,68.570122 C891.047363,76.831314 896.011414,82.727707 904.647400,83.646019 C909.594910,84.172119 914.752930,82.717949 920.694275,82.057739 C919.629028,84.952782 919.384644,89.136963 917.188965,90.925209 C910.562683,96.321831 902.812439,93.837143 895.437256,91.866570 C894.647278,98.579536 894.617615,98.711617 900.385315,100.007851 C903.219727,100.644875 906.187012,100.694801 909.095398,100.998756 C918.603088,101.992393 927.394470,95.126480 927.000000,82.320816 M846.000000,248.486557 C846.000000,232.413940 846.000000,216.341309 846.000000,200.272461 C843.070251,200.272461 840.672607,200.272461 837.906311,200.272461 C837.906311,207.545273 837.906311,214.554230 837.906311,221.667831 C835.807312,221.091263 834.119141,220.384216 832.373962,220.190140 C824.655579,219.331787 817.100098,218.690750 810.633972,224.755524 C802.378357,232.498825 803.435852,242.288589 804.552551,251.802521 C805.024658,255.824921 807.319824,260.194183 810.054871,263.282349 C817.539307,271.733154 827.399475,270.835297 837.106628,268.325348 C844.340698,266.454834 845.998352,263.830078 845.999939,256.462555 C846.000427,254.134811 846.000000,251.807053 846.000000,248.486557 M446.731232,46.220268 C444.193939,40.608719 441.090240,35.156536 434.413086,34.317833 C428.740417,33.605301 422.907257,34.170765 416.710236,34.170765 C416.710236,28.220379 416.710236,21.140749 416.710236,14.182895 C414.341705,14.182895 412.388611,14.182895 410.230438,14.182895 C410.143036,14.968468 410.012421,15.596734 410.012054,16.225080 C410.000214,35.698887 410.073975,55.173141 409.956238,74.646248 C409.920319,80.587112 413.670013,81.597763 417.756073,82.973633 C418.962982,83.380035 420.247650,83.594810 421.513824,83.779961 C432.416565,85.374313 445.784576,80.668854 446.908813,66.949455 C447.449646,60.349239 446.985718,53.666687 446.731232,46.220268 M566.550232,29.039505 C565.180298,25.459240 563.810364,21.878977 562.402466,18.199471 C560.078308,18.199471 557.623047,18.199471 555.492065,18.199471 C547.702087,39.569775 540.013611,60.661671 532.380615,81.601273 C538.437439,83.454018 541.517944,81.252029 542.421997,75.254059 C542.847839,72.428658 544.132996,69.732376 545.032837,66.978951 C545.933899,64.222008 547.387695,62.626484 550.743347,62.915070 C554.878418,63.270687 559.102844,63.342815 563.224365,62.916241 C568.814636,62.337658 572.729736,63.302589 573.495239,69.860229 C573.785217,72.344421 575.211365,74.684746 576.030151,77.120728 C577.863220,82.574821 578.738708,82.991791 585.121277,81.108879 C584.599365,79.423485 584.139038,77.716125 583.545959,76.056183 C578.029053,60.613384 572.489258,45.178749 566.550232,29.039505 M385.525604,153.000000 C393.285492,153.000000 401.045349,153.000000 408.757294,153.000000 C409.731323,137.042664 404.810120,129.945480 390.733032,126.324631 C385.959320,125.096748 375.201965,128.797714 371.697296,133.431244 C365.943298,141.038620 366.157257,149.661346 367.301453,157.892990 C368.598969,167.227158 373.112305,175.309631 384.321777,176.010696 C388.955353,176.300476 393.637817,176.236526 398.274475,175.950989 C405.891937,175.481888 406.989166,173.811661 405.342499,166.164200 C391.999115,171.517395 385.692169,170.949738 380.511353,166.890213 C376.158997,163.479843 374.060913,158.923508 375.342316,153.000000 C378.582031,153.000000 381.559906,153.000000 385.525604,153.000000 M774.745483,262.999817 C764.682190,261.133911 760.312622,255.689178 761.449280,245.970825 C772.473328,245.970825 783.552979,245.970825 794.586060,245.970825 C795.773010,232.939697 791.900146,221.064133 776.001160,219.097870 C770.902649,218.467346 761.717102,221.149429 757.543335,226.698502 C752.056458,233.993637 752.567688,242.194733 753.153564,250.241119 C753.922546,260.801331 759.828979,267.100586 770.177063,268.914490 C774.690796,269.705719 779.476257,269.225739 784.116577,268.952942 C791.845947,268.498535 792.784363,267.114685 791.594666,259.838348 C786.276917,260.890778 780.948181,261.945404 774.745483,262.999817 M708.406250,177.000000 C712.218018,176.351974 716.071533,175.883652 719.831421,175.012024 C724.926147,173.830963 727.298096,170.692947 727.084045,165.178223 C726.761719,156.873856 726.971130,148.547592 727.010071,140.230896 C727.036438,134.589600 724.472534,130.573196 719.453735,128.182388 C712.750061,124.988937 705.759338,125.923759 698.987000,127.596077 C691.654602,129.406708 691.732666,129.722870 692.169800,137.137009 C696.257324,136.024429 700.381287,134.704407 704.593811,133.793777 C715.482239,131.439957 722.344421,139.003845 719.802979,146.567413 C713.084106,146.370331 706.750122,145.844513 700.445801,146.087357 C692.897339,146.378143 688.730408,151.056137 687.029724,160.105240 C686.065979,165.232605 689.335632,171.940155 694.851074,174.189255 C698.788391,175.794861 703.252258,176.109375 708.406250,177.000000 M484.400452,145.005219 C482.321869,145.336731 480.250763,145.727417 478.163483,145.989838 C467.351624,147.349182 464.032043,156.105148 465.539398,164.784683 C466.074707,167.866974 468.392181,171.505768 470.996033,173.206635 C480.230682,179.238770 490.277222,177.604797 500.004974,174.335022 C503.570526,173.136551 505.243988,170.043518 505.090942,165.810181 C504.784607,157.336395 504.946899,148.843307 505.018219,140.359055 C505.067688,134.474808 502.343811,130.448456 497.118073,128.019119 C490.527435,124.955246 483.575562,125.641441 477.104492,127.589561 C468.263855,130.251022 470.104126,128.073593 470.137054,137.143188 C474.201874,136.049301 478.308807,134.768341 482.495392,133.851074 C494.042358,131.321152 500.170258,139.392197 497.526825,147.696198 C493.431946,146.812439 489.357208,145.933029 484.400452,145.005219 M704.376465,267.084229 C707.856445,265.411194 709.155029,262.696442 709.062500,258.812103 C708.860413,250.329178 708.948181,241.837662 709.017761,233.350494 C709.066040,227.463577 706.336182,223.442642 701.104919,221.015091 C694.508911,217.954193 687.559326,218.669815 681.088623,220.604752 C672.308350,223.230331 674.090759,221.039658 674.140808,230.147125 C678.209595,229.047394 682.324585,227.753784 686.521790,226.835632 C697.906982,224.345078 704.230530,232.325104 701.859436,239.567245 C695.150452,239.370468 688.810303,238.817520 682.506042,239.091324 C674.395020,239.443634 669.845154,244.817429 669.002441,254.055328 C668.396179,260.701294 673.675415,267.207245 680.739136,269.038879 C688.631897,271.085419 696.223022,269.627533 704.376465,267.084229 M399.998566,76.072517 C400.332306,67.666512 400.966919,59.258728 400.917023,50.855003 C400.864838,42.062386 396.868195,35.029133 391.154785,34.247044 C385.957062,33.535545 380.441071,33.549564 375.288513,34.479797 C367.415436,35.901188 367.496948,36.352631 368.358582,44.523251 C386.305298,35.069622 395.803436,42.522121 392.782379,54.507950 C389.158173,53.681812 385.559357,52.754726 381.916931,52.054485 C375.334381,50.789024 366.975342,55.560703 364.997162,61.590965 C361.198273,73.171280 365.031158,80.202965 376.913696,83.452553 C384.934723,85.646111 395.638489,82.609016 399.998566,76.072517 M455.843079,220.001938 C449.200470,222.073898 443.728851,226.094147 442.721924,233.016022 C441.641235,240.445282 441.062744,248.402710 442.553894,255.659332 C446.011475,272.485352 469.591248,273.270325 478.009216,264.584900 C486.161407,256.173676 485.898102,246.095444 484.166382,235.797272 C483.631989,232.619431 482.061829,229.289505 480.056458,226.746353 C473.997162,219.062271 465.692047,218.061630 455.843079,220.001938 M625.000000,239.789413 C624.356384,234.224319 622.694031,229.300873 618.677185,224.958206 C614.851074,220.821701 609.987732,219.795410 605.138916,219.182571 C597.137817,218.171280 586.525391,221.716446 582.855347,232.009796 C580.083008,239.785477 580.375244,247.486816 582.140503,255.125320 C586.104675,272.278564 608.676270,273.205872 617.548401,265.036713 C624.903015,258.264832 625.231323,249.651871 625.000000,239.789413 M322.831421,42.320671 C325.344788,44.800171 327.497131,47.904064 330.455261,49.614292 C335.005188,52.244827 340.228882,53.679958 344.943909,56.063141 C349.998230,58.617813 352.330872,64.411209 350.857727,69.396919 C349.687256,73.358192 345.404419,75.607162 340.018738,76.082588 C332.610046,76.736572 326.517944,73.670685 320.100586,69.560524 C320.327789,73.892082 318.489929,77.566528 323.660919,80.139030 C330.420959,83.502052 337.354828,83.253929 344.328156,82.885925 C350.507111,82.559837 356.141754,76.925705 357.813477,70.510712 C359.762634,63.030987 357.443512,54.725796 351.750946,51.386555 C345.934540,47.974655 339.682190,45.312576 333.673706,42.219337 C329.241608,39.937656 327.646057,35.077465 328.911072,30.509459 C330.052856,26.386349 338.349121,22.838194 342.482025,24.252409 C346.689728,25.692232 350.762726,27.525711 354.798828,29.148270 C355.261902,22.058838 353.652008,19.653824 347.027863,18.038738 C345.463623,17.657351 343.877838,17.287382 342.280609,17.132311 C337.279541,16.646765 327.705444,17.988422 323.900543,24.490332 C320.586029,30.154301 320.616882,35.801823 322.831421,42.320671 M506.158417,44.659325 C500.820618,29.497013 489.473206,32.694199 477.857300,36.134098 C477.857300,28.100483 477.857300,20.672146 477.857300,13.279390 C475.395447,13.279390 473.329498,13.279390 471.265869,13.279390 C471.265869,36.288307 471.265869,59.016983 471.265869,81.720680 C473.607117,81.720680 475.667908,81.720680 478.000000,81.720680 C478.000000,70.312988 477.958069,59.182102 478.048676,48.052307 C478.061157,46.518353 478.223724,44.223598 479.182495,43.588997 C483.749420,40.566246 489.064575,38.989151 494.213196,41.258430 C498.533417,43.162579 500.120270,47.387547 500.044952,52.257687 C499.893677,62.038605 500.000000,71.823509 500.000000,81.791779 C502.475952,81.791779 504.539581,81.791779 506.766205,81.791779 C506.766205,69.479637 506.766205,57.373585 506.158417,44.659325 M694.964111,80.563309 C696.302979,79.426758 697.972290,78.515800 698.927368,77.117157 C705.284241,67.808029 705.439819,57.449215 702.519897,47.204998 C699.392761,36.233902 693.427795,33.412075 684.157837,33.215752 C675.575439,33.033997 667.597839,36.303795 665.119873,47.172836 C663.827515,52.841843 663.797485,58.943275 664.097168,64.803375 C664.987366,82.208977 680.784119,88.324730 694.964111,80.563309 M372.108795,220.001816 C363.394714,218.206940 354.985443,219.305328 347.002838,223.077408 C345.672638,223.705963 344.192383,225.660782 344.133850,227.059357 C343.841400,234.045120 344.000031,241.049774 344.000000,248.047775 C343.999969,254.649551 344.000000,261.251312 344.000000,267.667145 C347.031860,267.667145 349.435638,267.667145 352.000000,267.667145 C352.000000,255.519104 351.913239,243.701721 352.105347,231.888870 C352.130524,230.340424 353.284454,227.815918 354.434875,227.469849 C357.667236,226.497528 361.222351,225.833557 364.556976,226.122757 C371.824585,226.753036 376.328125,229.453339 376.065033,238.422928 C375.778564,248.189728 376.000000,257.971436 376.000000,267.715820 C378.944153,267.715820 381.345581,267.715820 384.000000,267.715820 C384.000000,257.627502 383.925079,247.820450 384.022858,238.015121 C384.106445,229.633713 381.517059,223.017899 372.108795,220.001816 M762.993164,133.513824 C760.220337,137.296906 757.447571,141.079987 754.781189,144.717957 C751.881958,140.954178 748.401794,137.582230 746.341919,133.494537 C743.220032,127.299393 738.735229,125.789520 732.137390,127.469139 C737.145630,134.364029 741.948792,141.232330 747.048157,147.873199 C749.140625,150.598282 748.722107,152.389832 746.693726,154.940002 C741.629272,161.307129 736.935303,167.968979 732.191589,174.378876 C739.178345,177.009689 742.735962,173.185349 745.954407,168.429749 C748.438721,164.758896 751.145203,161.238419 753.821899,157.556168 C757.206665,161.955505 760.076355,165.869110 763.154724,169.611069 C764.760681,171.563126 766.446472,173.963715 768.619263,174.795914 C770.965515,175.694534 773.922241,174.999283 776.957642,174.999283 C771.269531,167.343033 765.951294,160.391815 760.947388,153.221283 C760.215454,152.172470 760.411133,149.716385 761.161621,148.538315 C763.248474,145.262634 765.929810,142.372986 768.234558,139.227005 C771.005798,135.444138 773.630676,131.554123 776.351440,127.664001 C769.770813,125.439728 766.144958,128.175537 762.993164,133.513824 M673.000000,123.604919 C673.000000,121.833939 673.000000,120.062958 673.000000,117.886673 C680.599915,117.886673 687.675049,117.886673 694.723999,117.886673 C694.723999,115.395844 694.723999,113.331482 694.723999,111.262138 C677.385498,111.262138 660.324097,111.262138 643.273926,111.262138 C643.273926,113.596031 643.273926,115.661278 643.273926,118.139771 C650.610168,118.139771 657.678711,118.139771 665.134338,118.139771 C665.134338,137.289810 665.134338,156.016602 665.134338,174.718887 C667.944275,174.718887 670.342346,174.718887 673.000000,174.718887 C673.000000,157.819702 673.000000,141.200150 673.000000,123.604919 M719.127258,81.644684 C721.248230,82.359428 723.319580,83.410934 725.498535,83.731560 C735.820190,85.250359 745.600464,80.996162 746.663818,71.397713 C748.014771,59.202934 746.990845,46.745056 746.990845,34.209526 C745.519958,34.209526 743.457153,34.209526 741.000000,34.209526 C741.000000,37.864010 741.101929,41.326023 740.978943,44.780022 C740.715454,52.181000 740.583557,59.599869 739.928589,66.969727 C739.358582,73.383400 734.587769,77.326385 728.677307,76.995476 C722.225220,76.634254 718.010254,72.119324 718.002991,65.521965 C717.991577,55.093666 718.000000,44.665348 718.000000,34.282864 C715.387512,34.282864 713.322205,34.282864 711.000671,34.282864 C711.000671,46.187210 710.787354,57.816341 711.099304,69.431366 C711.235535,74.503944 713.595154,78.802269 719.127258,81.644684 M792.321228,81.912819 C792.505066,70.184692 793.364990,58.413403 792.619995,46.744579 C792.170471,39.703445 788.058533,34.645405 779.640625,33.727489 C772.251465,32.921745 765.552979,33.813194 759.074219,37.073521 C758.139404,37.543968 757.100281,38.957542 757.091125,39.943737 C756.962341,53.863464 757.003540,67.784767 757.003540,81.745255 C759.563843,81.745255 761.627380,81.745255 764.000000,81.745255 C764.000000,70.712540 764.191528,59.926476 763.914551,49.152458 C763.786926,44.187946 764.158875,41.553905 770.435425,40.498798 C780.354858,38.831322 786.556763,44.599873 786.117310,52.920284 C785.611816,62.491474 786.000000,72.109856 786.000000,81.991577 C788.113953,81.991577 789.747314,81.991577 792.321228,81.912819 M853.000000,56.506470 C853.000122,52.673676 852.858765,48.832500 853.084900,45.013096 C853.154297,43.842056 853.983032,42.013409 854.884094,41.702164 C864.608582,38.343021 875.825928,39.677422 875.088318,54.133087 C874.616882,63.372864 875.000000,72.656242 875.000000,81.829620 C877.626343,81.829620 879.584473,81.829620 881.994324,81.829620 C881.994324,70.380302 882.345642,59.079304 881.844116,47.816284 C881.598206,42.295292 879.258667,37.125912 873.382507,34.880634 C864.448547,31.466944 855.895203,33.344975 847.597961,37.161324 C846.808411,37.524456 846.077393,38.980530 846.070740,39.934464 C845.973267,53.876034 846.003723,67.818497 846.003723,81.713600 C848.614685,81.713600 850.682007,81.713600 853.000000,81.713600 C853.000000,73.454948 853.000000,65.479858 853.000000,56.506470 M417.513519,219.000046 C408.196289,219.614136 399.601166,222.476166 396.694275,232.082642 C393.443878,242.824265 392.431213,254.482925 401.139496,263.319275 C409.967896,272.277435 421.112946,269.448212 431.773499,266.820953 C431.773499,264.041992 431.773499,261.613617 431.773499,258.825256 C422.550873,262.497650 413.408325,264.490082 405.660126,256.938263 C401.329407,252.717346 401.187531,237.784714 405.260071,232.590256 C412.621765,223.200470 422.353485,227.424271 431.498932,228.893753 C432.580536,222.262344 431.791901,221.044815 425.635651,220.027817 C423.233734,219.631027 420.814423,219.339737 417.513519,219.000046 M743.615479,261.013916 C737.182617,263.143524 733.164368,261.633514 733.061340,256.702698 C732.857239,246.934006 733.001038,237.158066 733.001038,226.971985 C737.165039,226.971985 740.915833,226.971985 744.771240,226.971985 C744.771240,224.484558 744.771240,222.419815 744.771240,219.936523 C740.812622,219.936523 737.063599,219.936523 732.920410,219.936523 C732.920410,215.447205 732.920410,211.362259 732.920410,207.260361 C730.094482,207.260361 727.695251,207.260361 724.886108,207.260361 C724.886108,211.591034 724.886108,215.677444 724.886108,219.840500 C722.057800,219.974487 719.641846,220.088928 717.283752,220.200638 C717.283752,222.629257 717.283752,224.694382 717.283752,226.839920 C719.968506,226.974030 722.375671,227.094254 725.000000,227.225327 C725.000000,237.223633 724.954651,246.855652 725.016357,256.487000 C725.055725,262.638428 727.544983,266.970886 733.056335,268.315308 C736.498535,269.154999 740.463989,268.479095 744.010315,267.672455 C744.636230,267.530090 744.352844,263.390076 743.615479,261.013916 M330.000000,133.500031 C330.000000,126.065956 330.000000,118.631889 330.000000,111.301086 C327.360504,111.301086 325.295990,111.301086 323.000000,111.301086 C323.000000,122.066902 323.000000,132.533310 323.000000,142.999725 C323.000000,153.587097 323.000000,164.174454 323.000000,174.718155 C336.652161,174.718155 349.719177,174.718155 362.702332,174.718155 C362.702332,172.366364 362.702332,170.301926 362.702332,167.821808 C351.678467,167.821808 340.946075,167.821808 330.308990,167.821808 C330.153564,167.086655 330.030212,166.774246 330.029724,166.461639 C330.012604,155.807770 330.007141,145.153900 330.000000,133.500031 M588.311707,71.825485 C593.699768,83.785904 604.481384,84.315186 613.542542,82.530968 C620.909790,81.080292 620.227905,82.954659 619.786255,73.343330 C611.616882,75.954948 603.191467,78.845383 596.458557,70.814697 C592.238281,65.780899 592.062500,50.255177 596.428162,45.353928 C603.080566,37.885525 611.621399,41.196472 619.649353,42.798710 C620.431702,35.005939 620.190491,34.715878 612.467163,33.998905 C611.813904,33.938263 611.147034,33.936325 610.510620,33.796761 C599.561890,31.395592 590.860352,37.700851 588.034973,46.150604 C585.265930,54.431805 585.903625,62.757774 588.311707,71.825485 M630.986755,77.479012 C637.061401,83.714386 644.915588,84.169281 652.466003,82.563072 C659.937622,80.973640 659.193420,82.921776 658.813110,73.366882 C650.699829,75.858902 641.821838,79.205254 635.703369,70.850388 C630.162170,63.283676 630.543640,53.638622 635.297424,46.091152 C640.966187,37.090984 650.526550,41.423752 659.775940,42.944382 C658.871094,39.901020 658.915649,36.448952 657.332703,35.357594 C650.884460,30.911938 637.959473,33.284672 631.869934,38.449432 C624.040283,45.089993 622.742249,67.640816 630.986755,77.479012 M811.000000,27.503847 C811.000000,25.401640 811.000000,23.299433 811.000000,21.302431 C808.353333,21.302431 806.289307,21.302431 803.819214,21.302431 C803.819214,25.679745 803.819214,29.759918 803.819214,33.813942 C801.321533,33.976051 799.238892,34.111225 797.315063,34.236088 C797.315063,36.691910 797.315063,38.761223 797.315063,40.813091 C799.699524,40.975918 801.768921,41.117233 804.000000,41.269588 C804.000000,47.127300 803.868164,52.605438 804.035767,58.074398 C804.216492,63.971935 804.240967,69.928436 805.139648,75.734459 C806.027344,81.469864 812.725098,84.502937 819.794922,82.956558 C824.807068,81.860245 822.654358,78.121201 822.812073,75.022911 C821.871399,75.074463 821.192261,74.986481 820.591431,75.163910 C814.431335,76.982979 811.423706,75.549698 811.133179,69.499687 C810.681763,60.101971 811.013977,50.666626 811.013977,40.846313 C815.305298,40.846313 819.053223,40.846313 822.704590,40.846313 C822.704590,38.364487 822.704590,36.299839 822.704590,33.817730 C818.676147,33.817730 814.934204,33.817730 811.000000,33.817730 C811.000000,31.752193 811.000000,30.106838 811.000000,27.503847 M523.000000,130.500122 C523.000000,123.400352 523.000000,116.300583 523.000000,109.305298 C520.014465,109.305298 517.613281,109.305298 515.287842,109.305298 C515.287842,131.336761 515.287842,153.061798 515.287842,174.694916 C517.985229,174.694916 520.386353,174.694916 523.000000,174.694916 C523.000000,160.094055 523.000000,145.797043 523.000000,130.500122 M495.000000,247.499878 C495.000000,254.270935 495.000000,261.041992 495.000000,267.686279 C497.998169,267.686279 500.400940,267.686279 503.027283,267.686279 C503.027283,254.415176 503.027283,241.455566 503.027283,227.746887 C509.002686,227.286667 514.800232,226.840164 520.649292,226.389694 C521.426697,219.648026 521.006470,218.517090 516.114807,219.135208 C510.064026,219.899780 504.135773,221.643707 498.160065,222.988770 C495.455627,223.597519 494.825653,225.319458 494.926819,228.009872 C495.158325,234.165451 495.000000,240.335663 495.000000,247.499878 M657.390381,219.000412 C650.223755,220.487854 643.057129,221.975311 636.302734,223.377213 C636.302734,239.057831 636.302734,253.440933 636.302734,267.683350 C639.011963,267.683350 641.410828,267.683350 644.122620,267.683350 C644.122620,254.291870 644.122620,241.213562 644.122620,227.664658 C650.220154,227.231018 656.019287,226.818573 661.945862,226.397079 C661.766174,223.384903 663.484680,219.538330 657.390381,219.000412 M323.000000,237.500000 C323.000000,247.598404 323.000000,257.696808 323.000000,267.700317 C325.636658,267.700317 327.701355,267.700317 329.716980,267.700317 C329.716980,246.337173 329.716980,225.274887 329.716980,204.299500 C327.363678,204.299500 325.298981,204.299500 323.000000,204.299500 C323.000000,215.231552 323.000000,225.865768 323.000000,237.500000 M836.000000,37.681343 C836.409363,31.144749 831.818054,35.014000 829.239258,33.924236 C829.239258,50.215736 829.239258,65.948761 829.239258,81.752426 C831.550781,81.752426 833.615234,81.752426 836.000000,81.752426 C836.000000,67.220116 836.000000,52.933079 836.000000,37.681343 M455.000000,39.615459 C455.000000,53.701176 455.000000,67.786896 455.000000,81.661133 C457.716217,81.661133 459.780457,81.661133 461.678955,81.661133 C461.678955,65.586922 461.678955,49.853088 461.678955,34.153194 C459.400360,34.153194 457.443970,34.153194 455.000000,34.153194 C455.000000,35.749073 455.000000,37.197563 455.000000,39.615459 M833.426392,18.000719 C832.003235,18.084600 830.580139,18.168482 829.320923,18.242702 C829.320923,21.388901 829.320923,24.127459 829.320923,26.667280 C831.714600,26.667280 833.780945,26.667280 836.822876,26.667280 C835.899719,23.419695 835.130493,20.713665 833.426392,18.000719 M461.929688,18.772913 C459.772522,18.444828 457.615356,18.116743 455.213593,17.751457 C455.213593,21.147522 455.213593,23.884344 455.213593,26.783077 C457.495300,26.783077 459.560181,26.783077 461.993256,26.783077 C461.993256,24.288851 461.993256,21.995647 461.929688,18.772913 z" style="fill: rgb(255, 255, 255);"/>
  <path opacity="1.000000" stroke="none" d=" M122.533882,1.000000 C131.158096,4.494172 138.492432,9.256626 140.851364,18.284784 C144.029541,30.448353 142.564728,41.601734 129.007935,51.116905 C112.591309,62.639343 96.525223,74.687614 80.672539,86.979187 C66.759087,97.767151 68.680534,117.996521 83.600349,129.015488 C100.933571,141.816849 118.078651,154.906937 134.782944,168.513123 C144.745071,176.627579 143.289825,194.647949 135.185394,203.524048 C124.479858,215.248886 108.557251,215.545624 95.332863,205.012650 C77.976959,191.188995 59.975861,178.177856 42.348915,164.690948 C33.904629,158.229980 25.447472,151.749146 17.427485,144.780869 C9.709564,138.075027 4.787793,129.452744 2.729439,119.316711 C2.646032,118.905983 2.064237,118.596466 1.357324,118.119888 C1.000000,110.645744 1.000000,103.291496 1.355365,95.350510 C4.153682,89.331383 6.338302,83.763695 9.096736,78.496521 C13.908877,69.307831 22.451214,63.861526 30.514767,57.951267 C56.368240,39.001709 82.175133,19.988592 108.000000,1.000001 C112.689255,1.000000 117.378510,1.000000 122.533882,1.000000 z" style="fill: rgb(255, 255, 255);"/>
  <path fill="#25282A" opacity="1.000000" stroke="none" d=" M159.466125,289.000000 C153.734741,286.077820 148.311447,283.764099 144.564407,278.340759 C136.535126,266.719421 138.807571,249.244461 151.847839,239.919434 C168.739609,227.840210 185.306885,215.292053 201.732849,202.582626 C210.650726,195.682465 212.513748,177.947922 204.780563,169.617065 C198.675659,163.040283 191.264938,157.614334 184.129166,152.069824 C172.725327,143.209030 160.924194,134.857742 149.564377,125.942719 C140.504745,118.832840 138.078934,103.519119 143.620712,92.822762 C149.052475,82.338730 162.607315,77.050026 173.380157,79.604790 C181.861237,81.616066 187.290741,87.667274 193.745880,92.360703 C207.133377,102.094521 220.292252,112.144707 233.480499,122.150009 C243.843918,130.012253 254.587601,137.465790 264.283051,146.089462 C273.623077,154.396973 278.748901,165.552628 279.924011,178.105072 C280.722046,186.629074 279.962585,195.129410 276.937439,203.261414 C273.061829,213.679520 266.063354,221.519531 257.149536,228.042969 C240.254211,240.407578 223.606293,253.110031 206.839233,265.650238 C197.743362,272.453094 188.648300,279.258270 179.465210,285.941956 C177.950424,287.044434 175.983032,287.525146 174.112411,288.646606 C169.310745,289.000000 164.621490,289.000000 159.466125,289.000000 z"/>
  <path fill="#FFFFFF" opacity="1.000000" stroke="none" d=" M107.531342,1.000001 C82.175133,19.988592 56.368240,39.001709 30.514767,57.951267 C22.451214,63.861526 13.908877,69.307831 9.096736,78.496521 C6.338302,83.763695 4.153682,89.331383 1.355365,94.881889 C1.000000,63.735004 1.000000,32.470009 1.000000,1.000000 C36.353962,1.000000 71.708321,1.000000 107.531342,1.000001 z"/>
  <path opacity="1.000000" stroke="none" d=" M530.444153,289.000000 C530.000000,270.167664 529.999451,251.335342 530.000305,232.503006 C530.000610,225.185394 531.744751,222.459656 538.952026,220.636490 C545.733887,218.920929 552.624695,218.231262 559.461975,221.110962 C566.635498,224.132263 570.392578,229.813126 571.417236,237.031189 C572.683044,245.947525 573.529663,255.202393 566.762878,262.631012 C560.064392,269.984650 551.553772,271.220367 542.252197,268.657379 C541.024353,268.319031 539.765503,268.092957 538.000000,267.698425 C538.000000,274.789581 538.000000,281.426208 538.000000,288.531403 C535.629456,289.000000 533.258850,289.000000 530.444153,289.000000 M542.093872,261.611298 C545.286682,261.982391 548.706299,263.279694 551.632751,262.562988 C563.800598,259.583038 569.097778,240.723145 560.689453,231.195053 C555.247864,225.028763 548.643738,225.652420 541.539246,227.666245 C538.683533,228.475739 537.910583,229.659164 537.954346,232.379700 C538.082764,240.348846 538.123230,248.324341 537.932983,256.291016 C537.866699,259.068573 538.680969,260.632111 542.093872,261.611298 z" style="fill: rgb(255, 255, 255);"/>
  <path fill="#25282A" opacity="1.000000" stroke="none" d=" M307.000000,88.000000 C307.000000,104.800438 307.000000,121.100876 307.000000,137.700119 C301.708832,137.700119 296.642975,137.700119 291.286194,137.700119 C291.286194,96.696068 291.286194,55.648346 291.286194,14.299993 C296.290924,14.299993 301.356781,14.299993 307.000000,14.299993 C307.000000,38.668724 307.000000,63.084362 307.000000,88.000000 z"/>
  <path opacity="1.000000" stroke="none" d=" M291.001282,265.800110 C291.000244,225.369522 291.000244,185.421600 291.000244,145.237701 C296.388977,145.237701 301.328705,145.237701 306.635864,145.237701 C306.635864,186.253036 306.635864,227.305908 306.635864,268.984406 C302.123047,268.984406 297.518860,269.095734 292.931976,268.863953 C292.247040,268.829376 291.643524,267.183350 291.001282,265.800110 z" style="fill: rgb(255, 255, 255);"/>
  <path opacity="1.000000" stroke="none" d=" M590.237427,147.735336 C592.730347,150.586227 594.972717,153.179993 597.733459,156.373444 C598.864624,153.464539 599.256042,150.535797 600.904358,148.802109 C602.329590,147.303101 605.182617,147.161652 608.910034,145.917587 C607.021729,151.426987 606.064209,155.477386 604.254639,159.102509 C602.809509,161.997437 603.479309,163.843781 605.374023,165.925858 C607.879028,168.678497 610.258667,171.545197 612.862488,174.559982 C606.366882,176.153503 601.288696,174.761948 597.887451,169.095215 C582.676086,181.094177 568.172058,175.956665 563.331055,168.580414 C556.775940,158.592392 558.817932,146.170456 572.065857,138.380875 C569.377747,133.174057 563.807007,128.535843 566.809570,121.860413 C568.305420,118.534607 570.682434,114.988403 573.648315,113.063347 C580.750610,108.453468 589.481689,110.741241 593.816345,117.483276 C598.856934,125.323326 596.035156,132.065262 584.201294,140.344284 C586.131165,142.723953 588.059021,145.101074 590.237427,147.735336 M567.513367,155.992157 C567.246216,161.519348 569.957458,166.068680 574.573914,167.839325 C579.656006,169.788559 588.400391,168.036865 591.056458,164.310684 C591.632263,163.502853 591.821533,161.598358 591.283386,160.946136 C586.529724,155.185135 581.571594,149.592819 575.591309,142.703415 C572.739075,147.411041 570.344727,151.362885 567.513367,155.992157 M576.407837,130.917267 C577.476624,132.305893 578.545410,133.694534 579.575745,135.033249 C588.313110,131.416000 590.030029,126.509064 587.886108,121.691917 C586.456726,118.480316 580.945190,117.144112 577.692383,119.076744 C573.347900,121.657990 572.802734,125.313942 576.407837,130.917267 z" style="fill: rgb(255, 255, 255);"/>
  <path opacity="1.000000" stroke="none" d=" M432.285126,186.998169 C435.645172,186.706635 438.664429,186.819321 441.432556,186.040070 C448.217072,184.130203 449.166016,182.542542 448.791504,174.951340 C446.426239,175.323730 444.081024,175.524918 441.821167,176.076080 C427.411926,179.590652 415.051636,171.060623 415.008545,155.316574 C414.992065,149.289536 414.696991,143.323303 417.707458,137.612366 C420.470673,132.370377 424.371918,128.720306 429.996704,127.600311 C438.461304,125.914825 447.185547,124.786995 454.084503,131.793213 C455.713135,133.447174 456.824280,136.345200 456.873199,138.697968 C457.139801,151.522751 457.051422,164.356262 456.983429,177.186218 C456.930969,187.089462 450.006409,193.996964 440.053528,193.950989 C435.809875,193.931381 431.566010,193.089096 427.326965,193.128357 C421.031708,193.186661 421.680054,189.345139 422.267761,184.887634 C425.601562,185.622910 428.715820,186.309769 432.285126,186.998169 M444.888519,168.628586 C446.167145,167.951889 447.445770,167.275177 449.000000,166.452591 C449.000000,159.170166 449.000000,151.707825 449.000000,144.245483 C449.000000,135.379761 449.000000,135.379776 440.191986,133.648621 C433.608154,132.354599 426.533661,135.602310 424.831635,141.892807 C423.414764,147.129379 422.797058,152.892334 423.338348,158.269867 C424.010803,164.950424 428.943359,169.199219 435.403870,169.876160 C438.239929,170.173355 441.198273,169.303711 444.888519,168.628586 z" style="fill: rgb(255, 255, 255);"/>
  <path opacity="1.000000" stroke="none" d=" M927.000000,82.794342 C927.394470,95.126480 918.603088,101.992393 909.095398,100.998756 C906.187012,100.694801 903.219727,100.644875 900.385315,100.007851 C894.617615,98.711617 894.647278,98.579536 895.437256,91.866570 C902.812439,93.837143 910.562683,96.321831 917.188965,90.925209 C919.384644,89.136963 919.629028,84.952782 920.694275,82.057739 C914.752930,82.717949 909.594910,84.172119 904.647400,83.646019 C896.011414,82.727707 891.047363,76.831314 889.302734,68.570122 C887.497620,60.022350 887.990112,51.721909 891.733887,43.445118 C894.042542,38.341251 897.976379,35.691936 902.480957,34.411098 C908.503174,32.698727 914.749268,32.871246 920.817810,35.852081 C925.289246,38.048435 926.964783,41.321461 926.983215,45.852097 C927.032532,58.008156 927.000000,70.164551 927.000000,82.794342 M911.870178,40.964985 C903.182739,40.069393 898.864075,42.894447 897.014221,51.241344 C896.247742,54.699894 895.906677,58.361767 896.071960,61.898460 C896.704956,75.437782 905.658508,79.952660 917.292603,74.829254 C918.580933,74.261894 919.824036,72.009247 919.879578,70.493912 C920.146973,63.195328 920.037415,55.881310 919.987610,48.573269 C919.950562,43.143047 918.445251,41.635109 911.870178,40.964985 z" style="fill: rgb(255, 255, 255);"/>
  <path opacity="1.000000" stroke="none" d=" M846.000000,248.982941 C846.000000,251.807053 846.000427,254.134811 845.999939,256.462555 C845.998352,263.830078 844.340698,266.454834 837.106628,268.325348 C827.399475,270.835297 817.539307,271.733154 810.054871,263.282349 C807.319824,260.194183 805.024658,255.824921 804.552551,251.802521 C803.435852,242.288589 802.378357,232.498825 810.633972,224.755524 C817.100098,218.690750 824.655579,219.331787 832.373962,220.190140 C834.119141,220.384216 835.807312,221.091263 837.906311,221.667831 C837.906311,214.554230 837.906311,207.545273 837.906311,200.272461 C840.672607,200.272461 843.070251,200.272461 846.000000,200.272461 C846.000000,216.341309 846.000000,232.413940 846.000000,248.982941 M834.137024,261.962097 C835.424255,260.523895 837.766052,259.127808 837.825439,257.640564 C838.176880,248.840652 838.043701,240.018936 837.924988,231.206573 C837.913635,230.366211 837.071533,229.201767 836.290894,228.757721 C826.081848,222.950485 814.713562,227.106934 812.604980,238.177704 C811.581238,243.552582 812.299683,249.665588 813.787292,255.010895 C815.697144,261.873199 823.867737,264.319305 834.137024,261.962097 z" style="fill: rgb(255, 255, 255);"/>
  <path opacity="1.000000" stroke="none" d=" M446.854004,46.620842 C446.985718,53.666687 447.449646,60.349239 446.908813,66.949455 C445.784576,80.668854 432.416565,85.374313 421.513824,83.779961 C420.247650,83.594810 418.962982,83.380035 417.756073,82.973633 C413.670013,81.597763 409.920319,80.587112 409.956238,74.646248 C410.073975,55.173141 410.000214,35.698887 410.012054,16.225080 C410.012421,15.596734 410.143036,14.968468 410.230438,14.182895 C412.388611,14.182895 414.341705,14.182895 416.710236,14.182895 C416.710236,21.140749 416.710236,28.220379 416.710236,34.170765 C422.907257,34.170765 428.740417,33.605301 434.413086,34.317833 C441.090240,35.156536 444.193939,40.608719 446.854004,46.620842 M434.858093,42.340958 C429.796814,39.731968 424.617279,40.455669 419.609863,42.249264 C418.428009,42.672600 417.152710,44.773121 417.115021,46.135170 C416.885162,54.436581 416.887634,62.750427 417.100677,71.052727 C417.140503,72.604462 418.072937,74.821693 419.294830,75.541977 C426.733337,79.926949 436.461761,75.840607 439.083710,67.407974 C439.697662,65.433426 439.971191,63.345711 440.313751,61.295429 C441.460907,54.429489 440.481750,48.117985 434.858093,42.340958 z" style="fill: rgb(255, 255, 255);"/>
  <path opacity="1.000000" stroke="none" d=" M566.753174,29.390623 C572.489258,45.178749 578.029053,60.613384 583.545959,76.056183 C584.139038,77.716125 584.599365,79.423485 585.121277,81.108879 C578.738708,82.991791 577.863220,82.574821 576.030151,77.120728 C575.211365,74.684746 573.785217,72.344421 573.495239,69.860229 C572.729736,63.302589 568.814636,62.337658 563.224365,62.916241 C559.102844,63.342815 554.878418,63.270687 550.743347,62.915070 C547.387695,62.626484 545.933899,64.222008 545.032837,66.978951 C544.132996,69.732376 542.847839,72.428658 542.421997,75.254059 C541.517944,81.252029 538.437439,83.454018 532.380615,81.601273 C540.013611,60.661671 547.702087,39.569775 555.492065,18.199471 C557.623047,18.199471 560.078308,18.199471 562.402466,18.199471 C563.810364,21.878977 565.180298,25.459240 566.753174,29.390623 M564.000000,42.496948 C562.504883,38.322407 561.009766,34.147865 559.514648,29.973326 C559.151245,29.921961 558.787842,29.870598 558.424377,29.819235 C555.535217,38.046143 552.646057,46.273052 549.645447,54.817245 C556.237000,54.817245 562.012085,54.817245 568.412781,54.817245 C566.870789,50.751606 565.459778,47.031219 564.000000,42.496948 z" style="fill: rgb(255, 255, 255);"/>
  <path opacity="1.000000" stroke="none" d=" M385.031677,153.000000 C381.559906,153.000000 378.582031,153.000000 375.342316,153.000000 C374.060913,158.923508 376.158997,163.479843 380.511353,166.890213 C385.692169,170.949738 391.999115,171.517395 405.342499,166.164200 C406.989166,173.811661 405.891937,175.481888 398.274475,175.950989 C393.637817,176.236526 388.955353,176.300476 384.321777,176.010696 C373.112305,175.309631 368.598969,167.227158 367.301453,157.892990 C366.157257,149.661346 365.943298,141.038620 371.697296,133.431244 C375.201965,128.797714 385.959320,125.096748 390.733032,126.324631 C404.810120,129.945480 409.731323,137.042664 408.757294,153.000000 C401.045349,153.000000 393.285492,153.000000 385.031677,153.000000 M379.727631,146.000000 C386.774567,146.000000 393.821533,146.000000 400.882599,146.000000 C400.497375,138.142700 395.260345,133.065674 388.051270,133.004562 C380.688324,132.942154 375.803619,137.835693 375.344330,146.000000 C376.504303,146.000000 377.648956,146.000000 379.727631,146.000000 z" style="fill: rgb(255, 255, 255);"/>
  <path opacity="1.000000" stroke="none" d=" M775.182434,262.999908 C780.948181,261.945404 786.276917,260.890778 791.594666,259.838348 C792.784363,267.114685 791.845947,268.498535 784.116577,268.952942 C779.476257,269.225739 774.690796,269.705719 770.177063,268.914490 C759.828979,267.100586 753.922546,260.801331 753.153564,250.241119 C752.567688,242.194733 752.056458,233.993637 757.543335,226.698502 C761.717102,221.149429 770.902649,218.467346 776.001160,219.097870 C791.900146,221.064133 795.773010,232.939697 794.586060,245.970825 C783.552979,245.970825 772.473328,245.970825 761.449280,245.970825 C760.312622,255.689178 764.682190,261.133911 775.182434,262.999908 M762.328186,233.154861 C761.851013,234.966446 761.373840,236.778030 760.828613,238.848007 C769.740051,238.848007 778.172546,238.848007 786.596069,238.848007 C786.947571,233.636383 783.584839,228.380081 779.149353,227.058929 C771.827637,224.878113 766.479065,226.699066 762.328186,233.154861 z" style="fill: rgb(255, 255, 255);"/>
  <path opacity="1.000000" stroke="none" d=" M707.943726,177.000000 C703.252258,176.109375 698.788391,175.794861 694.851074,174.189255 C689.335632,171.940155 686.065979,165.232605 687.029724,160.105240 C688.730408,151.056137 692.897339,146.378143 700.445801,146.087357 C706.750122,145.844513 713.084106,146.370331 719.802979,146.567413 C722.344421,139.003845 715.482239,131.439957 704.593811,133.793777 C700.381287,134.704407 696.257324,136.024429 692.169800,137.137009 C691.732666,129.722870 691.654602,129.406708 698.987000,127.596077 C705.759338,125.923759 712.750061,124.988937 719.453735,128.182388 C724.472534,130.573196 727.036438,134.589600 727.010071,140.230896 C726.971130,148.547592 726.761719,156.873856 727.084045,165.178223 C727.298096,170.692947 724.926147,173.830963 719.831421,175.012024 C716.071533,175.883652 712.218018,176.351974 707.943726,177.000000 M696.021729,165.156616 C701.609802,171.479065 708.660156,170.836365 715.730835,168.931595 C717.368164,168.490509 719.361755,166.597549 719.810669,164.987656 C722.034912,157.010818 720.082520,154.212341 711.695312,153.059875 C708.772583,152.658279 705.716431,152.720459 702.776367,153.055145 C696.159729,153.808319 693.830383,157.784393 696.021729,165.156616 z" style="fill: rgb(255, 255, 255);"/>
  <path opacity="1.000000" stroke="none" d=" M484.841431,145.029419 C489.357208,145.933029 493.431946,146.812439 497.526825,147.696198 C500.170258,139.392197 494.042358,131.321152 482.495392,133.851074 C478.308807,134.768341 474.201874,136.049301 470.137054,137.143188 C470.104126,128.073593 468.263855,130.251022 477.104492,127.589561 C483.575562,125.641441 490.527435,124.955246 497.118073,128.019119 C502.343811,130.448456 505.067688,134.474808 505.018219,140.359055 C504.946899,148.843307 504.784607,157.336395 505.090942,165.810181 C505.243988,170.043518 503.570526,173.136551 500.004974,174.335022 C490.277222,177.604797 480.230682,179.238770 470.996033,173.206635 C468.392181,171.505768 466.074707,167.866974 465.539398,164.784683 C464.032043,156.105148 467.351624,147.349182 478.163483,145.989838 C480.250763,145.727417 482.321869,145.336731 484.841431,145.029419 M483.797455,152.042862 C482.889923,152.360870 481.990173,152.926376 481.073578,152.955139 C476.486359,153.099045 473.684296,155.439468 473.063599,159.866989 C472.402435,164.583130 474.736847,167.947311 479.309357,168.881882 C483.415283,169.721100 487.741730,170.121902 491.908173,169.827728 C495.438263,169.578461 498.218384,167.556686 498.027222,163.191452 C497.844574,159.020401 499.378571,154.091309 492.780487,153.321701 C490.057892,153.004135 487.362823,152.450439 483.797455,152.042862 z" style="fill: rgb(255, 255, 255);"/>
  <path opacity="1.000000" stroke="none" d=" M704.103638,267.383484 C696.223022,269.627533 688.631897,271.085419 680.739136,269.038879 C673.675415,267.207245 668.396179,260.701294 669.002441,254.055328 C669.845154,244.817429 674.395020,239.443634 682.506042,239.091324 C688.810303,238.817520 695.150452,239.370468 701.859436,239.567245 C704.230530,232.325104 697.906982,224.345078 686.521790,226.835632 C682.324585,227.753784 678.209595,229.047394 674.140808,230.147125 C674.090759,221.039658 672.308350,223.230331 681.088623,220.604752 C687.559326,218.669815 694.508911,217.954193 701.104919,221.015091 C706.336182,223.442642 709.066040,227.463577 709.017761,233.350494 C708.948181,241.837662 708.860413,250.329178 709.062500,258.812103 C709.155029,262.696442 707.856445,265.411194 704.103638,267.383484 M678.956421,259.429352 C683.499573,263.707794 689.186523,263.144806 694.686096,262.941406 C698.709961,262.792633 701.836243,261.336426 702.041382,256.422516 C702.361816,248.749008 701.637634,247.264114 696.070435,246.042465 C694.341370,245.663086 692.463928,244.784653 690.881348,245.141434 C686.746033,246.073700 682.166016,246.745880 678.841980,249.066757 C675.731750,251.238373 676.432617,255.467514 678.956421,259.429352 z" style="fill: rgb(255, 255, 255);"/>
  <path opacity="1.000000" stroke="none" d=" M399.990173,76.489845 C395.638489,82.609016 384.934723,85.646111 376.913696,83.452553 C365.031158,80.202965 361.198273,73.171280 364.997162,61.590965 C366.975342,55.560703 375.334381,50.789024 381.916931,52.054485 C385.559357,52.754726 389.158173,53.681812 392.782379,54.507950 C395.803436,42.522121 386.305298,35.069622 368.358582,44.523251 C367.496948,36.352631 367.415436,35.901188 375.288513,34.479797 C380.441071,33.549564 385.957062,33.535545 391.154785,34.247044 C396.868195,35.029133 400.864838,42.062386 400.917023,50.855003 C400.966919,59.258728 400.332306,67.666512 399.990173,76.489845 M376.928040,60.028484 C373.584167,61.467808 371.035309,63.510960 370.993866,67.571426 C370.934052,73.432373 373.928345,75.495483 380.298553,76.884880 C389.586243,78.910591 392.788818,75.818733 393.117981,66.472099 C393.258545,62.479904 391.679962,60.523415 388.193573,60.131733 C384.748474,59.744690 381.229156,60.018253 376.928040,60.028484 z" style="fill: rgb(255, 255, 255);"/>
  <path opacity="1.000000" stroke="none" d=" M456.264984,220.000687 C465.692047,218.061630 473.997162,219.062271 480.056458,226.746353 C482.061829,229.289505 483.631989,232.619431 484.166382,235.797272 C485.898102,246.095444 486.161407,256.173676 478.009216,264.584900 C469.591248,273.270325 446.011475,272.485352 442.553894,255.659332 C441.062744,248.402710 441.641235,240.445282 442.721924,233.016022 C443.728851,226.094147 449.200470,222.073898 456.264984,220.000687 M449.000000,239.584320 C449.000275,243.233032 448.850922,246.889343 449.035492,250.528717 C449.319244,256.124664 453.514679,260.610657 459.770721,262.332733 C465.567230,263.928314 470.946930,262.186462 474.062653,257.381927 C477.541412,252.017609 478.191345,246.241226 477.126404,239.850723 C475.696991,231.272629 471.323730,226.405212 463.293884,226.004761 C456.490631,225.665451 450.433929,231.059402 449.000000,239.584320 z" style="fill: rgb(255, 255, 255);"/>
  <path opacity="1.000000" stroke="none" d=" M625.000000,240.254425 C625.231323,249.651871 624.903015,258.264832 617.548401,265.036713 C608.676270,273.205872 586.104675,272.278564 582.140503,255.125320 C580.375244,247.486816 580.083008,239.785477 582.855347,232.009796 C586.525391,221.716446 597.137817,218.171280 605.138916,219.182571 C609.987732,219.795410 614.851074,220.821701 618.677185,224.958206 C622.694031,229.300873 624.356384,234.224319 625.000000,240.254425 M588.995850,241.292084 C588.998840,244.607941 588.741333,247.949280 589.062439,251.234039 C589.620483,256.941559 594.419250,261.533752 600.804077,262.932495 C605.430115,263.945923 612.096008,261.221558 614.542847,256.876587 C617.648315,251.362076 618.108765,245.486008 617.129944,239.147736 C615.945435,231.477921 609.865173,225.304016 602.597717,226.054306 C594.069824,226.934738 588.614746,233.243347 588.995850,241.292084 z" style="fill: rgb(255, 255, 255);"/>
  <path opacity="1.000000" stroke="none" d=" M322.543335,42.043568 C320.616882,35.801823 320.586029,30.154301 323.900543,24.490332 C327.705444,17.988422 337.279541,16.646765 342.280609,17.132311 C343.877838,17.287382 345.463623,17.657351 347.027863,18.038738 C353.652008,19.653824 355.261902,22.058838 354.798828,29.148270 C350.762726,27.525711 346.689728,25.692232 342.482025,24.252409 C338.349121,22.838194 330.052856,26.386349 328.911072,30.509459 C327.646057,35.077465 329.241608,39.937656 333.673706,42.219337 C339.682190,45.312576 345.934540,47.974655 351.750946,51.386555 C357.443512,54.725796 359.762634,63.030987 357.813477,70.510712 C356.141754,76.925705 350.507111,82.559837 344.328156,82.885925 C337.354828,83.253929 330.420959,83.502052 323.660919,80.139030 C318.489929,77.566528 320.327789,73.892082 320.100586,69.560524 C326.517944,73.670685 332.610046,76.736572 340.018738,76.082588 C345.404419,75.607162 349.687256,73.358192 350.857727,69.396919 C352.330872,64.411209 349.998230,58.617813 344.943909,56.063141 C340.228882,53.679958 335.005188,52.244827 330.455261,49.614292 C327.497131,47.904064 325.344788,44.800171 322.543335,42.043568 z" style="fill: rgb(255, 255, 255);"/>
  <path opacity="1.000000" stroke="none" d=" M506.462311,44.963428 C506.766205,57.373585 506.766205,69.479637 506.766205,81.791779 C504.539581,81.791779 502.475952,81.791779 500.000000,81.791779 C500.000000,71.823509 499.893677,62.038605 500.044952,52.257687 C500.120270,47.387547 498.533417,43.162579 494.213196,41.258430 C489.064575,38.989151 483.749420,40.566246 479.182495,43.588997 C478.223724,44.223598 478.061157,46.518353 478.048676,48.052307 C477.958069,59.182102 478.000000,70.312988 478.000000,81.720680 C475.667908,81.720680 473.607117,81.720680 471.265869,81.720680 C471.265869,59.016983 471.265869,36.288307 471.265869,13.279390 C473.329498,13.279390 475.395447,13.279390 477.857300,13.279390 C477.857300,20.672146 477.857300,28.100483 477.857300,36.134098 C489.473206,32.694199 500.820618,29.497013 506.462311,44.963428 z" style="fill: rgb(255, 255, 255);"/>
  <path opacity="1.000000" stroke="none" d=" M694.672607,80.822823 C680.784119,88.324730 664.987366,82.208977 664.097168,64.803375 C663.797485,58.943275 663.827515,52.841843 665.119873,47.172836 C667.597839,36.303795 675.575439,33.033997 684.157837,33.215752 C693.427795,33.412075 699.392761,36.233902 702.519897,47.204998 C705.439819,57.449215 705.284241,67.808029 698.927368,77.117157 C697.972290,78.515800 696.302979,79.426758 694.672607,80.822823 M673.940857,45.470726 C668.646790,52.027958 669.549927,65.979759 673.684265,72.027618 C676.447510,76.069687 681.081360,77.659012 685.784729,76.841759 C690.199524,76.074646 693.565247,73.444221 695.139648,68.712273 C697.142395,62.692696 697.496155,56.844257 696.140320,50.586414 C695.070679,45.649284 692.248840,42.484600 687.957153,41.171898 C682.934998,39.635757 677.732483,39.815460 673.940857,45.470726 z" style="fill: rgb(255, 255, 255);"/>
  <path opacity="1.000000" stroke="none" d=" M372.527893,220.011475 C381.517059,223.017899 384.106445,229.633713 384.022858,238.015121 C383.925079,247.820450 384.000000,257.627502 384.000000,267.715820 C381.345581,267.715820 378.944153,267.715820 376.000000,267.715820 C376.000000,257.971436 375.778564,248.189728 376.065033,238.422928 C376.328125,229.453339 371.824585,226.753036 364.556976,226.122757 C361.222351,225.833557 357.667236,226.497528 354.434875,227.469849 C353.284454,227.815918 352.130524,230.340424 352.105347,231.888870 C351.913239,243.701721 352.000000,255.519104 352.000000,267.667145 C349.435638,267.667145 347.031860,267.667145 344.000000,267.667145 C344.000000,261.251312 343.999969,254.649551 344.000000,248.047775 C344.000031,241.049774 343.841400,234.045120 344.133850,227.059357 C344.192383,225.660782 345.672638,223.705963 347.002838,223.077408 C354.985443,219.305328 363.394714,218.206940 372.527893,220.011475 z" style="fill: rgb(255, 255, 255);"/>
  <path opacity="1.000000" stroke="none" d=" M763.254395,133.251205 C766.144958,128.175537 769.770813,125.439728 776.351440,127.664001 C773.630676,131.554123 771.005798,135.444138 768.234558,139.227005 C765.929810,142.372986 763.248474,145.262634 761.161621,148.538315 C760.411133,149.716385 760.215454,152.172470 760.947388,153.221283 C765.951294,160.391815 771.269531,167.343033 776.957642,174.999283 C773.922241,174.999283 770.965515,175.694534 768.619263,174.795914 C766.446472,173.963715 764.760681,171.563126 763.154724,169.611069 C760.076355,165.869110 757.206665,161.955505 753.821899,157.556168 C751.145203,161.238419 748.438721,164.758896 745.954407,168.429749 C742.735962,173.185349 739.178345,177.009689 732.191589,174.378876 C736.935303,167.968979 741.629272,161.307129 746.693726,154.940002 C748.722107,152.389832 749.140625,150.598282 747.048157,147.873199 C741.948792,141.232330 737.145630,134.364029 732.137390,127.469139 C738.735229,125.789520 743.220032,127.299393 746.341919,133.494537 C748.401794,137.582230 751.881958,140.954178 754.781189,144.717957 C757.447571,141.079987 760.220337,137.296906 763.254395,133.251205 z" style="fill: rgb(255, 255, 255);"/>
  <path opacity="1.000000" stroke="none" d=" M673.000000,124.092751 C673.000000,141.200150 673.000000,157.819702 673.000000,174.718887 C670.342346,174.718887 667.944275,174.718887 665.134338,174.718887 C665.134338,156.016602 665.134338,137.289810 665.134338,118.139771 C657.678711,118.139771 650.610168,118.139771 643.273926,118.139771 C643.273926,115.661278 643.273926,113.596031 643.273926,111.262138 C660.324097,111.262138 677.385498,111.262138 694.723999,111.262138 C694.723999,113.331482 694.723999,115.395844 694.723999,117.886673 C687.675049,117.886673 680.599915,117.886673 673.000000,117.886673 C673.000000,120.062958 673.000000,121.833939 673.000000,124.092751 z" style="fill: rgb(255, 255, 255);"/>
  <path opacity="1.000000" stroke="none" d=" M718.850037,81.370766 C713.595154,78.802269 711.235535,74.503944 711.099304,69.431366 C710.787354,57.816341 711.000671,46.187210 711.000671,34.282864 C713.322205,34.282864 715.387512,34.282864 718.000000,34.282864 C718.000000,44.665348 717.991577,55.093666 718.002991,65.521965 C718.010254,72.119324 722.225220,76.634254 728.677307,76.995476 C734.587769,77.326385 739.358582,73.383400 739.928589,66.969727 C740.583557,59.599869 740.715454,52.181000 740.978943,44.780022 C741.101929,41.326023 741.000000,37.864010 741.000000,34.209526 C743.457153,34.209526 745.519958,34.209526 746.990845,34.209526 C746.990845,46.745056 748.014771,59.202934 746.663818,71.397713 C745.600464,80.996162 735.820190,85.250359 725.498535,83.731560 C723.319580,83.410934 721.248230,82.359428 718.850037,81.370766 z" style="fill: rgb(255, 255, 255);"/>
  <path opacity="1.000000" stroke="none" d=" M791.850952,81.952194 C789.747314,81.991577 788.113953,81.991577 786.000000,81.991577 C786.000000,72.109856 785.611816,62.491474 786.117310,52.920284 C786.556763,44.599873 780.354858,38.831322 770.435425,40.498798 C764.158875,41.553905 763.786926,44.187946 763.914551,49.152458 C764.191528,59.926476 764.000000,70.712540 764.000000,81.745255 C761.627380,81.745255 759.563843,81.745255 757.003540,81.745255 C757.003540,67.784767 756.962341,53.863464 757.091125,39.943737 C757.100281,38.957542 758.139404,37.543968 759.074219,37.073521 C765.552979,33.813194 772.251465,32.921745 779.640625,33.727489 C788.058533,34.645405 792.170471,39.703445 792.619995,46.744579 C793.364990,58.413403 792.505066,70.184692 791.850952,81.952194 z" style="fill: rgb(255, 255, 255);"/>
  <path opacity="1.000000" stroke="none" d=" M853.000000,57.005619 C853.000000,65.479858 853.000000,73.454948 853.000000,81.713600 C850.682007,81.713600 848.614685,81.713600 846.003723,81.713600 C846.003723,67.818497 845.973267,53.876034 846.070740,39.934464 C846.077393,38.980530 846.808411,37.524456 847.597961,37.161324 C855.895203,33.344975 864.448547,31.466944 873.382507,34.880634 C879.258667,37.125912 881.598206,42.295292 881.844116,47.816284 C882.345642,59.079304 881.994324,70.380302 881.994324,81.829620 C879.584473,81.829620 877.626343,81.829620 875.000000,81.829620 C875.000000,72.656242 874.616882,63.372864 875.088318,54.133087 C875.825928,39.677422 864.608582,38.343021 854.884094,41.702164 C853.983032,42.013409 853.154297,43.842056 853.084900,45.013096 C852.858765,48.832500 853.000122,52.673676 853.000000,57.005619 z" style="fill: rgb(255, 255, 255);"/>
  <path opacity="1.000000" stroke="none" d=" M417.958252,219.000214 C420.814423,219.339737 423.233734,219.631027 425.635651,220.027817 C431.791901,221.044815 432.580536,222.262344 431.499847,228.900436 C422.353485,227.424271 412.621765,223.200470 405.260071,232.590256 C401.187531,237.784714 401.329407,252.717346 405.660126,256.938263 C413.408325,264.490082 422.550873,262.497650 431.773499,258.825256 C431.773499,261.613617 431.773499,264.041992 431.773499,266.820953 C421.112946,269.448212 409.967896,272.277435 401.139496,263.319275 C392.431213,254.482925 393.443878,242.824265 396.694275,232.082642 C399.601166,222.476166 408.196289,219.614136 417.958252,219.000214 z" style="fill: rgb(255, 255, 255);"/>
  <path opacity="1.000000" stroke="none" d=" M744.052429,261.055054 C744.352844,263.390076 744.636230,267.530090 744.010315,267.672455 C740.463989,268.479095 736.498535,269.154999 733.056335,268.315308 C727.544983,266.970886 725.055725,262.638428 725.016357,256.487000 C724.954651,246.855652 725.000000,237.223633 725.000000,227.225327 C722.375671,227.094254 719.968506,226.974030 717.283752,226.839920 C717.283752,224.694382 717.283752,222.629257 717.283752,220.200638 C719.641846,220.088928 722.057800,219.974487 724.886108,219.840500 C724.886108,215.677444 724.886108,211.591034 724.886108,207.260361 C727.695251,207.260361 730.094482,207.260361 732.920410,207.260361 C732.920410,211.362259 732.920410,215.447205 732.920410,219.936523 C737.063599,219.936523 740.812622,219.936523 744.771240,219.936523 C744.771240,222.419815 744.771240,224.484558 744.771240,226.971985 C740.915833,226.971985 737.165039,226.971985 733.001038,226.971985 C733.001038,237.158066 732.857239,246.934006 733.061340,256.702698 C733.164368,261.633514 737.182617,263.143524 744.052429,261.055054 z" style="fill: rgb(255, 255, 255);"/>
  <path opacity="1.000000" stroke="none" d=" M330.000000,134.000031 C330.007141,145.153900 330.012604,155.807770 330.029724,166.461639 C330.030212,166.774246 330.153564,167.086655 330.308990,167.821808 C340.946075,167.821808 351.678467,167.821808 362.702332,167.821808 C362.702332,170.301926 362.702332,172.366364 362.702332,174.718155 C349.719177,174.718155 336.652161,174.718155 323.000000,174.718155 C323.000000,164.174454 323.000000,153.587097 323.000000,142.999725 C323.000000,132.533310 323.000000,122.066902 323.000000,111.301086 C325.295990,111.301086 327.360504,111.301086 330.000000,111.301086 C330.000000,118.631889 330.000000,126.065956 330.000000,134.000031 z" style="fill: rgb(255, 255, 255);"/>
  <path opacity="1.000000" stroke="none" d=" M588.168945,71.444305 C585.903625,62.757774 585.265930,54.431805 588.034973,46.150604 C590.860352,37.700851 599.561890,31.395592 610.510620,33.796761 C611.147034,33.936325 611.813904,33.938263 612.467163,33.998905 C620.190491,34.715878 620.431702,35.005939 619.649353,42.798710 C611.621399,41.196472 603.080566,37.885525 596.428162,45.353928 C592.062500,50.255177 592.238281,65.780899 596.458557,70.814697 C603.191467,78.845383 611.616882,75.954948 619.786255,73.343330 C620.227905,82.954659 620.909790,81.080292 613.542542,82.530968 C604.481384,84.315186 593.699768,83.785904 588.168945,71.444305 z" style="fill: rgb(255, 255, 255);"/>
  <path opacity="1.000000" stroke="none" d=" M630.712830,77.218918 C622.742249,67.640816 624.040283,45.089993 631.869934,38.449432 C637.959473,33.284672 650.884460,30.911938 657.332703,35.357594 C658.915649,36.448952 658.871094,39.901020 659.775940,42.944382 C650.526550,41.423752 640.966187,37.090984 635.297424,46.091152 C630.543640,53.638622 630.162170,63.283676 635.703369,70.850388 C641.821838,79.205254 650.699829,75.858902 658.813110,73.366882 C659.193420,82.921776 659.937622,80.973640 652.466003,82.563072 C644.915588,84.169281 637.061401,83.714386 630.712830,77.218918 z" style="fill: rgb(255, 255, 255);"/>
  <path opacity="1.000000" stroke="none" d=" M811.000000,27.982666 C811.000000,30.106838 811.000000,31.752193 811.000000,33.817730 C814.934204,33.817730 818.676147,33.817730 822.704590,33.817730 C822.704590,36.299839 822.704590,38.364487 822.704590,40.846313 C819.053223,40.846313 815.305298,40.846313 811.013977,40.846313 C811.013977,50.666626 810.681763,60.101971 811.133179,69.499687 C811.423706,75.549698 814.431335,76.982979 820.591431,75.163910 C821.192261,74.986481 821.871399,75.074463 822.812073,75.022911 C822.654358,78.121201 824.807068,81.860245 819.794922,82.956558 C812.725098,84.502937 806.027344,81.469864 805.139648,75.734459 C804.240967,69.928436 804.216492,63.971935 804.035767,58.074398 C803.868164,52.605438 804.000000,47.127300 804.000000,41.269588 C801.768921,41.117233 799.699524,40.975918 797.315063,40.813091 C797.315063,38.761223 797.315063,36.691910 797.315063,34.236088 C799.238892,34.111225 801.321533,33.976051 803.819214,33.813942 C803.819214,29.759918 803.819214,25.679745 803.819214,21.302431 C806.289307,21.302431 808.353333,21.302431 811.000000,21.302431 C811.000000,23.299433 811.000000,25.401640 811.000000,27.982666 z" style="fill: rgb(255, 255, 255);"/>
  <path opacity="1.000000" stroke="none" d=" M523.000000,131.000092 C523.000000,145.797043 523.000000,160.094055 523.000000,174.694916 C520.386353,174.694916 517.985229,174.694916 515.287842,174.694916 C515.287842,153.061798 515.287842,131.336761 515.287842,109.305298 C517.613281,109.305298 520.014465,109.305298 523.000000,109.305298 C523.000000,116.300583 523.000000,123.400352 523.000000,131.000092 z" style="fill: rgb(255, 255, 255);"/>
  <path opacity="1.000000" stroke="none" d=" M495.000000,246.999908 C495.000000,240.335663 495.158325,234.165451 494.926819,228.009872 C494.825653,225.319458 495.455627,223.597519 498.160065,222.988770 C504.135773,221.643707 510.064026,219.899780 516.114807,219.135208 C521.006470,218.517090 521.426697,219.648026 520.649292,226.389694 C514.800232,226.840164 509.002686,227.286667 503.027283,227.746887 C503.027283,241.455566 503.027283,254.415176 503.027283,267.686279 C500.400940,267.686279 497.998169,267.686279 495.000000,267.686279 C495.000000,261.041992 495.000000,254.270935 495.000000,246.999908 z" style="fill: rgb(255, 255, 255);"/>
  <path opacity="1.000000" stroke="none" d=" M657.831909,219.002213 C663.484680,219.538330 661.766174,223.384903 661.945862,226.397079 C656.019287,226.818573 650.220154,227.231018 644.122620,227.664658 C644.122620,241.213562 644.122620,254.291870 644.122620,267.683350 C641.410828,267.683350 639.011963,267.683350 636.302734,267.683350 C636.302734,253.440933 636.302734,239.057831 636.302734,223.377213 C643.057129,221.975311 650.223755,220.487854 657.831909,219.002213 z" style="fill: rgb(255, 255, 255);"/>
  <path opacity="1.000000" stroke="none" d=" M323.000000,237.000000 C323.000000,225.865768 323.000000,215.231552 323.000000,204.299500 C325.298981,204.299500 327.363678,204.299500 329.716980,204.299500 C329.716980,225.274887 329.716980,246.337173 329.716980,267.700317 C327.701355,267.700317 325.636658,267.700317 323.000000,267.700317 C323.000000,257.696808 323.000000,247.598404 323.000000,237.000000 z" style="fill: rgb(255, 255, 255);"/>
  <path opacity="1.000000" stroke="none" d=" M836.000000,38.163692 C836.000000,52.933079 836.000000,67.220116 836.000000,81.752426 C833.615234,81.752426 831.550781,81.752426 829.239258,81.752426 C829.239258,65.948761 829.239258,50.215736 829.239258,33.924236 C831.818054,35.014000 836.409363,31.144749 836.000000,38.163692 z" style="fill: rgb(255, 255, 255);"/>
  <path opacity="1.000000" stroke="none" d=" M455.000000,39.130756 C455.000000,37.197563 455.000000,35.749073 455.000000,34.153194 C457.443970,34.153194 459.400360,34.153194 461.678955,34.153194 C461.678955,49.853088 461.678955,65.586922 461.678955,81.661133 C459.780457,81.661133 457.716217,81.661133 455.000000,81.661133 C455.000000,67.786896 455.000000,53.701176 455.000000,39.130756 z" style="fill: rgb(255, 255, 255);"/>
  <path opacity="1.000000" stroke="none" d=" M833.893799,18.004177 C835.130493,20.713665 835.899719,23.419695 836.822876,26.667280 C833.780945,26.667280 831.714600,26.667280 829.320923,26.667280 C829.320923,24.127459 829.320923,21.388901 829.320923,18.242702 C830.580139,18.168482 832.003235,18.084600 833.893799,18.004177 z" style="fill: rgb(255, 255, 255);"/>
  <path opacity="1.000000" stroke="none" d=" M461.961487,19.237679 C461.993256,21.995647 461.993256,24.288851 461.993256,26.783077 C459.560181,26.783077 457.495300,26.783077 455.213593,26.783077 C455.213593,23.884344 455.213593,21.147522 455.213593,17.751457 C457.615356,18.116743 459.772522,18.444828 461.961487,19.237679 z" style="fill: rgb(255, 255, 255);"/>
  <path fill="#FFFFFF" opacity="1.000000" stroke="none" d=" M541.767395,261.332153 C538.680969,260.632111 537.866699,259.068573 537.932983,256.291016 C538.123230,248.324341 538.082764,240.348846 537.954346,232.379700 C537.910583,229.659164 538.683533,228.475739 541.539246,227.666245 C548.643738,225.652420 555.247864,225.028763 560.689453,231.195053 C569.097778,240.723145 563.800598,259.583038 551.632751,262.562988 C548.706299,263.279694 545.286682,261.982391 541.767395,261.332153 z"/>
  <path fill="#FFFFFF" opacity="1.000000" stroke="none" d=" M567.731873,155.653442 C570.344727,151.362885 572.739075,147.411041 575.591309,142.703415 C581.571594,149.592819 586.529724,155.185135 591.283386,160.946136 C591.821533,161.598358 591.632263,163.502853 591.056458,164.310684 C588.400391,168.036865 579.656006,169.788559 574.573914,167.839325 C569.957458,166.068680 567.246216,161.519348 567.731873,155.653442 z"/>
  <path fill="#FFFFFF" opacity="1.000000" stroke="none" d=" M576.218262,130.575073 C572.802734,125.313942 573.347900,121.657990 577.692383,119.076744 C580.945190,117.144112 586.456726,118.480316 587.886108,121.691917 C590.030029,126.509064 588.313110,131.416000 579.575745,135.033249 C578.545410,133.694534 577.476624,132.305893 576.218262,130.575073 z"/>
  <path fill="#FFFFFF" opacity="1.000000" stroke="none" d=" M444.494812,168.796234 C441.198273,169.303711 438.239929,170.173355 435.403870,169.876160 C428.943359,169.199219 424.010803,164.950424 423.338348,158.269867 C422.797058,152.892334 423.414764,147.129379 424.831635,141.892807 C426.533661,135.602310 433.608154,132.354599 440.191986,133.648621 C449.000000,135.379776 449.000000,135.379761 449.000000,144.245483 C449.000000,151.707825 449.000000,159.170166 449.000000,166.452591 C447.445770,167.275177 446.167145,167.951889 444.494812,168.796234 z"/>
  <path opacity="1.000000" stroke="none" d=" M912.281006,40.980827 C918.445251,41.635109 919.950562,43.143047 919.987610,48.573269 C920.037415,55.881310 920.146973,63.195328 919.879578,70.493912 C919.824036,72.009247 918.580933,74.261894 917.292603,74.829254 C905.658508,79.952660 896.704956,75.437782 896.071960,61.898460 C895.906677,58.361767 896.247742,54.699894 897.014221,51.241344 C898.864075,42.894447 903.182739,40.069393 912.281006,40.980827 z" fill="#FFFFFF"/>
  <path fill="#FFFFFF" opacity="1.000000" stroke="none" d=" M833.708252,261.979614 C823.867737,264.319305 815.697144,261.873199 813.787292,255.010895 C812.299683,249.665588 811.581238,243.552582 812.604980,238.177704 C814.713562,227.106934 826.081848,222.950485 836.290894,228.757721 C837.071533,229.201767 837.913635,230.366211 837.924988,231.206573 C838.043701,240.018936 838.176880,248.840652 837.825439,257.640564 C837.766052,259.127808 835.424255,260.523895 833.708252,261.979614 z"/>
  <path fill="#FFFFFF" opacity="1.000000" stroke="none" d=" M435.120056,42.631020 C440.481750,48.117985 441.460907,54.429489 440.313751,61.295429 C439.971191,63.345711 439.697662,65.433426 439.083710,67.407974 C436.461761,75.840607 426.733337,79.926949 419.294830,75.541977 C418.072937,74.821693 417.140503,72.604462 417.100677,71.052727 C416.887634,62.750427 416.885162,54.436581 417.115021,46.135170 C417.152710,44.773121 418.428009,42.672600 419.609863,42.249264 C424.617279,40.455669 429.796814,39.731968 435.120056,42.631020 z"/>
  <path fill="#FFFFFF" opacity="1.000000" stroke="none" d=" M564.024353,42.903893 C565.459778,47.031219 566.870789,50.751606 568.412781,54.817245 C562.012085,54.817245 556.237000,54.817245 549.645447,54.817245 C552.646057,46.273052 555.535217,38.046143 558.424377,29.819235 C558.787842,29.870598 559.151245,29.921961 559.514648,29.973326 C561.009766,34.147865 562.504883,38.322407 564.024353,42.903893 z"/>
  <path fill="#FFFFFF" opacity="1.000000" stroke="none" d=" M379.260620,146.000000 C377.648956,146.000000 376.504303,146.000000 375.344330,146.000000 C375.803619,137.835693 380.688324,132.942154 388.051270,133.004562 C395.260345,133.065674 400.497375,138.142700 400.882599,146.000000 C393.821533,146.000000 386.774567,146.000000 379.260620,146.000000 z"/>
  <path fill="#FFFFFF" opacity="1.000000" stroke="none" d=" M762.608337,232.874969 C766.479065,226.699066 771.827637,224.878113 779.149353,227.058929 C783.584839,228.380081 786.947571,233.636383 786.596069,238.848007 C778.172546,238.848007 769.740051,238.848007 760.828613,238.848007 C761.373840,236.778030 761.851013,234.966446 762.608337,232.874969 z"/>
  <path fill="#FFFFFF" opacity="1.000000" stroke="none" d=" M695.939819,164.759720 C693.830383,157.784393 696.159729,153.808319 702.776367,153.055145 C705.716431,152.720459 708.772583,152.658279 711.695312,153.059875 C720.082520,154.212341 722.034912,157.010818 719.810669,164.987656 C719.361755,166.597549 717.368164,168.490509 715.730835,168.931595 C708.660156,170.836365 701.609802,171.479065 695.939819,164.759720 z"/>
  <path fill="#FFFFFF" opacity="1.000000" stroke="none" d=" M484.226349,152.023499 C487.362823,152.450439 490.057892,153.004135 492.780487,153.321701 C499.378571,154.091309 497.844574,159.020401 498.027222,163.191452 C498.218384,167.556686 495.438263,169.578461 491.908173,169.827728 C487.741730,170.121902 483.415283,169.721100 479.309357,168.881882 C474.736847,167.947311 472.402435,164.583130 473.063599,159.866989 C473.684296,155.439468 476.486359,153.099045 481.073578,152.955139 C481.990173,152.926376 482.889923,152.360870 484.226349,152.023499 z"/>
  <path fill="#FFFFFF" opacity="1.000000" stroke="none" d=" M678.661499,259.155060 C676.432617,255.467514 675.731750,251.238373 678.841980,249.066757 C682.166016,246.745880 686.746033,246.073700 690.881348,245.141434 C692.463928,244.784653 694.341370,245.663086 696.070435,246.042465 C701.637634,247.264114 702.361816,248.749008 702.041382,256.422516 C701.836243,261.336426 698.709961,262.792633 694.686096,262.941406 C689.186523,263.144806 683.499573,263.707794 678.661499,259.155060 z"/>
  <path fill="#FFFFFF" opacity="1.000000" stroke="none" d=" M377.335205,60.015255 C381.229156,60.018253 384.748474,59.744690 388.193573,60.131733 C391.679962,60.523415 393.258545,62.479904 393.117981,66.472099 C392.788818,75.818733 389.586243,78.910591 380.298553,76.884880 C373.928345,75.495483 370.934052,73.432373 370.993866,67.571426 C371.035309,63.510960 373.584167,61.467808 377.335205,60.015255 z"/>
  <path fill="#FFFFFF" opacity="1.000000" stroke="none" d=" M449.000061,239.159363 C450.433929,231.059402 456.490631,225.665451 463.293884,226.004761 C471.323730,226.405212 475.696991,231.272629 477.126404,239.850723 C478.191345,246.241226 477.541412,252.017609 474.062653,257.381927 C470.946930,262.186462 465.567230,263.928314 459.770721,262.332733 C453.514679,260.610657 449.319244,256.124664 449.035492,250.528717 C448.850922,246.889343 449.000275,243.233032 449.000061,239.159363 z"/>
  <path fill="#FFFFFF" opacity="1.000000" stroke="none" d=" M588.997803,240.861450 C588.614746,233.243347 594.069824,226.934738 602.597717,226.054306 C609.865173,225.304016 615.945435,231.477921 617.129944,239.147736 C618.108765,245.486008 617.648315,251.362076 614.542847,256.876587 C612.096008,261.221558 605.430115,263.945923 600.804077,262.932495 C594.419250,261.533752 589.620483,256.941559 589.062439,251.234039 C588.741333,247.949280 588.998840,244.607941 588.997803,240.861450 z"/>
  <path fill="#FFFFFF" opacity="1.000000" stroke="none" d=" M673.989563,45.082268 C677.732483,39.815460 682.934998,39.635757 687.957153,41.171898 C692.248840,42.484600 695.070679,45.649284 696.140320,50.586414 C697.496155,56.844257 697.142395,62.692696 695.139648,68.712273 C693.565247,73.444221 690.199524,76.074646 685.784729,76.841759 C681.081360,77.659012 676.447510,76.069687 673.684265,72.027618 C669.549927,65.979759 668.646790,52.027958 673.989563,45.082268 z"/>
</svg>